<svg width="16" height="16" viewBox="0 0 16 16" fill="none" xmlns="http://www.w3.org/2000/svg">
<path d="M15.9167 6.53395C15.9959 6.13812 15.6792 5.66312 15.2834 5.66312L10.7709 5.02978L8.71254 0.913119C8.63337 0.754785 8.55421 0.675618 8.39587 0.596452C8.00004 0.358952 7.52504 0.517285 7.28754 0.913119L5.30837 5.02978L0.795874 5.66312C0.558374 5.66312 0.400041 5.74228 0.320874 5.90062C0.00420737 6.21728 0.00420737 6.69228 0.320874 7.00895L3.56671 10.1756L2.77504 14.6881C2.77504 14.8464 2.77504 15.0048 2.85421 15.1631C3.09171 15.559 3.56671 15.7173 3.96254 15.4798L8.00004 13.3423L12.0375 15.4798C12.1167 15.559 12.275 15.559 12.4334 15.559C12.5125 15.559 12.5125 15.559 12.5917 15.559C12.9875 15.4798 13.3042 15.084 13.225 14.6089L12.4334 10.0965L15.6792 6.92978C15.8375 6.85062 15.9167 6.69228 15.9167 6.53395Z" fill="url(#paint0_linear_322_6992)"/>
<defs>
<linearGradient id="paint0_linear_322_6992" x1="0.083374" y1="0.484863" x2="16.4568" y2="1.08053" gradientUnits="userSpaceOnUse">
<stop stop-color="#CDB45F"/>
<stop offset="1" stop-color="#B08E35"/>
</linearGradient>
</defs>
</svg>
